 
http://desibbrg.org/images/32356801851046293468.png 
http://desibbrg.org/images/37178271795939314372.png 
http://desibbrg.org/images/74270921592058301653.png 
http://desibbrg.org/images/52855942308663342770.png 
http://desibbrg.org/images/29599538102745494252.png

General
Complete name                  : Wadhta Wadhta Wadhe - Marathi Drama x264 MP3 [TMB].avi
Format                         : AVI
Format/Info                    : Audio Video Interleave
File size                      : 543 MiB
Duration                       : 1h 52mn
Overall bit rate               : 676 Kbps
Writing application            : Lavf54.63.104

Video
ID                             : 0
Format                         : AVC
Format/Info                    : Advanced Video Codec
Format profile                 : High@L3.0
Format settings, CABAC         : Yes
Format settings, ReFrames      : 1 frame
Codec ID                       : H264
Duration                       : 1h 52mn
Bit rate                       : 409 Kbps
Width                          : 640 pixels
Height                         : 480 pixels
Display aspect ratio           : 4:3
Frame rate mode                : Variable
Frame rate                     : 25.000 fps
Color space                    : YUV
Chroma subsampling             : 4:2:0
Bit depth                      : 8 bits
Scan type                      : Progressive
Bits/(Pixel*Frame)             : 0.053
Stream size                    : 328 MiB (60%)
Writing library                : x264 core 129

Audio
ID                             : 1
Format                         : MPEG Audio
Format version                 : Version 1
Format profile                 : Layer 3
Mode                           : Joint stereo
Mode extension                 : MS Stereo
Codec ID                       : 55
Codec ID/Hint                  : MP3
Duration                       : 1h 52mn
Bit rate mode                  : Constant
Bit rate                       : 256 Kbps
Channel(s)                     : 2 channels
Sampling rate                  : 44.1 KHz
Compression mode               : Lossy
Stream size                    : 205 MiB (38%)
Alignment                      : Aligned on interleaves
Interleave, duration           : 26 ms (0.65 video frame)
Writing library                : LAME3.99.5

Ripper : Manojvb

Seeding 24x7... Extreme Seeding...

